<?xml version="1.0" encoding="utf-8"?>
<!-- Generator: Adobe Illustrator 23.0.0, SVG Export Plug-In . SVG Version: 6.00 Build 0)  -->
<svg version="1.1" id="Layer_1" xmlns="http://www.w3.org/2000/svg" xmlns:xlink="http://www.w3.org/1999/xlink" x="0px" y="0px"
	 viewBox="0 0 560 93" style="enable-background:new 0 0 560 93;" xml:space="preserve">
<style type="text/css">
	.st0{fill:#DD381C;}
</style>
<g>
	<rect y="0.2" class="st0" width="560" height="8.3"/>
	<rect y="84.9" class="st0" width="560" height="8.3"/>
	<g>
		<path class="st0" d="M194.3,33.6c-0.5-0.1-2-0.1-6.7-0.1h-6.2v8.6h5.9c5.5,0,7.5-0.3,8.2-0.5c0.9-0.3,1.6-0.7,2.1-1.4
			c0.5-0.7,0.7-1.5,0.7-2.5c0-1.2-0.3-2-0.9-2.7C196.6,34.3,195.6,33.8,194.3,33.6z"/>
		<polygon class="st0" points="496.4,50 505.8,50 501,38.2 		"/>
		<path class="st0" d="M255.2,32.9c-3.6,0-6.4,1.1-8.6,3.4c-2.2,2.2-3.3,5.7-3.3,10.4c0,4.7,1.1,8.3,3.3,10.5
			c2.2,2.3,4.9,3.4,8.3,3.4c0.1,0,0.3,0,0.4,0c-0.9-0.4-1.8-0.8-2.7-1.1l-1.3-0.4l3.8-7l0.9,0.3c2.9,0.9,5.7,2.2,8.4,4
			c0.8-1,1.4-2.2,1.9-3.6c0.6-1.7,0.9-3.8,0.9-6.1c0-4.6-1.1-8.1-3.3-10.4C261.6,34,258.8,32.9,255.2,32.9z"/>
		<path class="st0" d="M50.3,35.7c-1-0.9-2.3-1.5-3.9-1.8c-1.3-0.3-3.8-0.4-7.6-0.4h-3.1v26.3h5.9c2.5,0,4.4-0.1,5.5-0.4
			c1.4-0.3,2.5-0.8,3.4-1.6c0.8-0.7,1.6-1.9,2.1-3.6c0.6-1.8,0.9-4.3,0.9-7.5c0-3.2-0.3-5.6-0.9-7.3C52.1,37.8,51.3,36.5,50.3,35.7z
			"/>
		<path class="st0" d="M0,15v63.4h560V15H0z M64.1,56.6c-1.2,3.3-3,6-5.3,8.1c-1.8,1.6-4.2,2.8-7.1,3.7c-2.2,0.6-5.1,1-8.7,1h-19
			V23.9h18.5c4,0,7.1,0.3,9.2,0.9c2.9,0.8,5.5,2.2,7.6,4.3c2.1,2,3.7,4.5,4.8,7.4c1.1,2.9,1.6,6.4,1.6,10.6
			C65.6,50.7,65.1,53.9,64.1,56.6z M81.9,69.4H70.1V23.9h11.8V69.4z M123.3,63.2c-1.6,2.3-3.9,4.1-6.9,5.2
			c-2.9,1.1-6.4,1.7-10.6,1.7c-6.2,0-11-1.4-14.4-4c-3.4-2.7-5.5-6.7-6.1-11.8l-0.2-1.2l11.5-1l0.2,1c0.5,2.6,1.5,4.4,3,5.6
			c1.5,1.2,3.6,1.8,6.2,1.8c2.8,0,4.9-0.5,6.2-1.5c1.3-1,1.9-2,1.9-3.2c0-0.7-0.2-1.3-0.7-1.8c-0.4-0.4-1.1-1-2.9-1.5
			c-1.1-0.3-3.6-1-7.5-1.9c-5.3-1.2-9-2.7-11.2-4.5c-3.2-2.6-4.7-5.8-4.7-9.6c0-2.4,0.8-4.7,2.2-6.8c1.5-2.1,3.6-3.7,6.4-4.8
			c2.7-1,5.9-1.6,9.7-1.6c6.1,0,10.9,1.3,14,3.8c3.2,2.6,5,6.1,5.1,10.4l0,1.2L112.8,39l-0.2-1c-0.3-1.9-1.1-3.3-2.2-4.1
			c-1.1-0.8-2.9-1.2-5.3-1.2c-2.5,0-4.5,0.5-5.8,1.4c-0.7,0.5-1,1-1,1.7c0,0.4,0.1,1,1,1.7c0.7,0.6,2.7,1.5,8.3,2.7
			c4.7,1,8.2,2.1,10.5,3.2c2.4,1.2,4.3,2.8,5.6,4.8c1.4,2,2.1,4.6,2.1,7.5C125.7,58.3,124.9,60.9,123.3,63.2z M166.7,33.5h-13.9
			v35.9H141V33.5H127v-9.6h39.6V33.5z M201,69.4l-7.2-9.9c-2.4-3.3-4-5.4-4.9-6.2c-0.8-0.7-1.6-1.3-2.4-1.5
			c-0.6-0.2-1.9-0.4-4.4-0.4h-0.8v18h-11.8V23.9h21.1c5.2,0,8.9,0.4,11.3,1.2c2.5,0.9,4.5,2.4,6,4.6c1.5,2.2,2.3,4.7,2.3,7.5
			c0,3.5-1.2,6.5-3.4,8.8c-1.7,1.7-4,3-7,3.7c1,0.7,1.9,1.5,2.7,2.2c1.4,1.4,3.2,3.7,5.5,7.2l7,10.2H201z M227.4,69.4h-11.8V23.9
			h11.8V69.4z M276.8,73.9l-0.9-0.2c-1.5-0.4-3-1-4.4-1.7c-0.1-0.1-0.5-0.2-5.9-3.6c-3.1,1.1-6.5,1.7-10.1,1.7
			c-7.5,0-13.5-2.1-17.8-6.2c-4.3-4.1-6.5-9.9-6.5-17.3c0-7.3,2.2-13.2,6.5-17.3c4.3-4.1,10.2-6.2,17.5-6.2c7.2,0,13.1,2.1,17.4,6.2
			c4.3,4.1,6.5,9.9,6.5,17.3c0,3.9-0.6,7.3-1.8,10.3c-0.8,1.9-1.9,3.8-3.4,5.6c1.9,1.1,4,2.1,6.2,2.8l1.3,0.4L276.8,73.9z
			 M322.9,47.7c0,5.3-0.3,9-0.8,11.3c-0.6,2.3-1.6,4.3-3.1,5.9c-1.5,1.6-3.5,2.9-6,3.8c-2.4,0.9-5.6,1.4-9.4,1.4
			c-4.7,0-8.2-0.5-10.6-1.5c-2.5-1-4.5-2.4-5.9-4c-1.5-1.7-2.4-3.4-2.9-5.3c-0.7-2.6-1-6.3-1-11.2V23.9H295v24.5
			c0,4.5,0.2,6.3,0.3,7c0.3,1.5,1.1,2.6,2.4,3.5c1.3,0.9,3.2,1.4,5.6,1.4c2.4,0,4.2-0.4,5.4-1.3c1.1-0.8,1.8-1.8,2-3
			c0.3-1.4,0.4-3.8,0.4-7.1v-25h11.8V47.7z M341.1,69.4h-11.8V23.9h11.8V69.4z M394.4,69.4h-11.1V42.8L376,69.4h-10.9l-7.3-26.5
			v26.5h-11.1V23.9H363l7.6,26.4l7.6-26.4h16.3V69.4z M459.3,55.4c-1.5,4.9-4,8.7-7.5,11.1c-3.5,2.4-7.9,3.6-13.1,3.6
			c-6.5,0-12-2.1-16.2-6.2c-4.2-4.1-6.4-9.8-6.4-16.9c0-7.5,2.2-13.4,6.4-17.6c4.2-4.2,9.9-6.3,16.7-6.3c6,0,11,1.7,14.8,5
			c2.3,2,4,4.8,5.2,8.5l0.4,1.2l-11.7,2.6l-0.3-1.1c-0.5-2-1.5-3.5-3-4.6c-1.6-1.1-3.5-1.7-5.7-1.7c-3.2,0-5.7,1-7.6,3.1
			c-1.9,2.1-2.9,5.6-2.9,10.4c0,5.1,1,8.8,2.9,10.9c1.9,2.1,4.4,3.1,7.5,3.1c2.3,0,4.2-0.6,5.8-1.9c1.6-1.3,2.8-3.4,3.5-6.3l0.3-1.2
			l11.5,3.3L459.3,55.4z M473.6,69.4h-11.3V58.8h11.3V69.4z M513.9,69.4l-4.1-9.8h-17.2l-3.9,9.8h-12.6l19.3-45.5h11.6l19.8,45.5
			H513.9z M538.2,69.4h-11.3V58.8h11.3V69.4z"/>
	</g>
</g>
</svg>
